<svg width="22" height="22" viewBox="0 0 22 22" fill="none" xmlns="http://www.w3.org/2000/svg">
<path fill-rule="evenodd" clip-rule="evenodd" d="M9.62786 15.8879L4.13662 10.5187C3.73917 10.1301 4.13662 9.69941 4.13662 9.69846L5.97939 7.89663C5.98525 7.89663 6.13173 7.72667 6.39931 7.72667C6.66689 7.72667 6.81336 7.89663 6.81924 7.89663L9.10341 10.131L9.10244 0.668311C9.10244 0.50885 9.16982 0.362756 9.27627 0.257718C9.28212 0.257718 9.42959 0.0877533 9.69619 0.0877533H12.3027C12.6298 0.0877533 12.8964 0.348429 12.8964 0.668309V10.13L15.1806 7.89565C15.1865 7.89565 15.333 7.72569 15.6005 7.72569C15.8681 7.72569 16.0146 7.89565 16.0205 7.89565L17.8632 9.69748C18.0947 9.92378 18.0947 10.2914 17.8632 10.5187L12.372 15.8879C11.4247 16.8141 10.5752 16.8141 9.62786 15.8879ZM1.37012 18.9063V21.2075H20.6299V18.9063H1.37012ZM0.650391 21.3317V18.7831C0.650391 18.4422 0.97069 18.2025 1.31544 18.2025H20.6847C21.0294 18.2025 21.3497 18.4422 21.3497 18.7831V21.3317C21.3497 21.6725 21.0294 21.9122 20.6847 21.9122H1.31544C0.970715 21.9122 0.650391 21.6726 0.650391 21.3317ZM4.73439 10.1082L10.1366 15.3904C10.7987 16.0378 11.2011 16.0378 11.8632 15.3904L17.2654 10.1082L15.6014 8.48019L12.1766 11.8288V0.791682H9.82311V11.8288L6.39837 8.48117L4.73439 10.1082Z" fill="#4C7C04"/>
</svg>
