<svg width="31" height="32" viewBox="0 0 31 32" fill="none" xmlns="http://www.w3.org/2000/svg">
<path d="M6.82838 6.91513C1.91674 11.8858 1.91674 19.9733 6.82838 24.944C9.2842 27.4293 12.5101 29 15.7356 29C18.9612 29 22.1873 27.4293 24.6428 24.944C29.5545 19.9733 29.5545 11.8858 24.6428 6.91513C19.7312 1.94447 11.74 1.94447 6.82838 6.91513ZM24.2048 24.5004C19.535 29.2263 11.9369 29.2263 7.26672 24.5004C2.59688 19.7747 2.59688 12.0847 7.26672 7.35874C9.60164 4.99576 12.6688 3.81427 15.7356 3.81427C18.8024 3.81427 21.8696 4.99576 24.2045 7.35874C28.8747 12.0847 28.8747 19.7744 24.2048 24.5004Z" fill="#B2C793"/>
<path d="M15.7356 4.81317C9.67855 4.81317 4.7511 9.80015 4.7511 15.9297C4.7511 22.0596 9.67886 27.0466 15.7356 27.0466C21.7924 27.0466 26.7202 22.0596 26.7202 15.9297C26.7202 9.79984 21.7927 4.81317 15.7356 4.81317ZM15.7356 26.4188C10.0205 26.4188 5.3711 21.7132 5.3711 15.9294C5.3711 10.1456 10.0208 5.44062 15.7356 5.44062C21.4505 5.44062 26.1002 10.1459 26.1002 15.9294C26.1002 21.7129 21.4508 26.4188 15.7356 26.4188Z" fill="#B2C793"/>
<path d="M11.8345 14.0182L11.916 14.0376C12.311 14.1311 12.6349 14.4151 12.7822 14.7966L12.8129 14.8759C13.0714 15.5451 13.6719 15.9987 14.379 16.0602C14.4332 16.0649 14.4872 16.0671 14.5408 16.0671C15.1869 16.0671 15.7824 15.7305 16.1215 15.163L16.1649 15.0908C16.3748 14.7398 16.7418 14.5158 17.1464 14.4916L17.2298 14.4866C17.9387 14.4442 18.5507 14.0072 18.8269 13.3449C19.1031 12.6833 18.9865 11.9341 18.5225 11.3907C18.2233 11.04 18.1136 10.5631 18.2292 10.1155C18.4087 9.42024 18.1867 8.69616 17.6498 8.22557C17.1132 7.7553 16.3732 7.63608 15.7194 7.91467L15.6419 7.9473C15.2681 8.1073 14.8412 8.06965 14.4996 7.84816L14.4298 7.80298C13.8315 7.41522 13.0826 7.40518 12.4747 7.776C11.8668 8.14745 11.5261 8.82259 11.5856 9.53914L11.5927 9.62259C11.6268 10.0317 11.46 10.4311 11.1466 10.6915L11.0821 10.7448C10.5331 11.2006 10.2923 11.9184 10.4532 12.6184C10.614 13.3176 11.1435 13.8544 11.8345 14.0182ZM11.4758 11.2295L11.5403 11.1762C12.0115 10.7846 12.2623 10.1842 12.2112 9.56894L12.204 9.48549C12.1637 9.00204 12.3848 8.56377 12.7952 8.3131C12.9955 8.19075 13.214 8.12988 13.4319 8.12988C13.6607 8.12988 13.8892 8.19702 14.096 8.3313L14.1657 8.37647C14.6794 8.70965 15.3211 8.76486 15.8822 8.52612L15.9597 8.49349C16.4021 8.30494 16.8819 8.38243 17.244 8.69992C17.6064 9.01773 17.7506 9.48769 17.6293 9.95702C17.4623 10.6049 17.6207 11.2944 18.0534 11.8011C18.3668 12.1685 18.4425 12.6544 18.2562 13.1015C18.0695 13.5486 17.6724 13.8325 17.1938 13.861L17.1104 13.866C16.5022 13.9018 15.9504 14.2387 15.6348 14.7664L15.5914 14.8386C15.3434 15.254 14.911 15.4783 14.432 15.4353C13.9543 15.3939 13.5649 15.0996 13.3904 14.6482L13.3597 14.5688C13.1378 13.9944 12.6507 13.5677 12.0574 13.4268L11.9759 13.4074C11.509 13.2966 11.1655 12.9487 11.0567 12.4759C10.9485 12.0035 11.1048 11.5373 11.4758 11.2295Z" fill="#B2C793"/>
<path d="M13.6691 13.3114C13.9863 13.5112 14.3443 13.6138 14.7086 13.6138C14.8586 13.6138 15.0099 13.5966 15.1599 13.5611C16.2201 13.3117 16.8823 12.2353 16.6355 11.1624C16.5159 10.6425 16.2037 10.2011 15.756 9.91907C15.3084 9.63735 14.7792 9.54793 14.2653 9.66935C13.7516 9.79013 13.3154 10.1064 13.0367 10.5594C12.758 11.0124 12.6703 11.5482 12.7897 12.0681C12.9093 12.5879 13.2215 13.0293 13.6691 13.3114ZM13.5628 10.891C13.7541 10.5804 14.0535 10.3633 14.4057 10.2805C14.5086 10.2563 14.6121 10.2444 14.7154 10.2444C14.9652 10.2444 15.2111 10.315 15.4284 10.4518C15.7353 10.6453 15.9498 10.9481 16.0316 11.3048C16.2009 12.0408 15.7467 12.779 15.0195 12.9503C14.6673 13.0334 14.304 12.9722 13.9968 12.779C13.6899 12.5854 13.4754 12.2827 13.3935 11.926C13.3114 11.5693 13.3718 11.2019 13.5628 10.891Z" fill="#B2C793"/>
<path d="M16.8671 22.5371C16.8723 22.5321 16.8788 22.5305 16.8838 22.5252C17 22.3978 16.992 22.1992 16.8661 22.0819C16.5146 21.7534 16.4107 21.5338 16.2905 21.279C16.1612 21.0061 16.0149 20.6968 15.5759 20.2867C15.1369 19.8764 14.8204 19.7537 14.5414 19.6452C14.2813 19.5441 14.0566 19.4563 13.7051 19.1285C13.3538 18.8003 13.25 18.5807 13.13 18.3263C13.0007 18.0533 12.8547 17.744 12.4161 17.3343C11.9774 16.9242 11.6609 16.8016 11.3816 16.693C11.1215 16.592 10.8971 16.5045 10.5455 16.1766C10.1943 15.8485 10.0905 15.6288 9.97049 15.3744C9.84122 15.1015 9.69521 14.7921 9.25656 14.3824C9.1307 14.2648 8.93478 14.2726 8.81853 14.4C8.81667 14.4022 8.81636 14.4047 8.8145 14.4069C8.81295 14.4088 8.81047 14.4094 8.80861 14.411L7.16065 16.2177C7.14794 16.2315 7.14267 16.2488 7.13275 16.2641C7.11849 16.2751 7.10206 16.282 7.08966 16.2955C6.97341 16.4229 6.98147 16.6215 7.10733 16.7388C7.45856 17.067 7.56241 17.2866 7.68238 17.541C7.81165 17.8139 7.95766 18.1233 8.39631 18.533C8.83496 18.943 9.15147 19.0657 9.43078 19.1743C9.69087 19.2753 9.91531 19.3628 10.2668 19.6907C10.6181 20.0188 10.7219 20.2384 10.8422 20.4928C10.9715 20.7658 11.1175 21.0751 11.5561 21.4848C11.9951 21.8952 12.3116 22.0179 12.5906 22.1264C12.8507 22.2277 13.0754 22.3153 13.427 22.6431C13.7785 22.9716 13.8824 23.1912 14.0027 23.4459C14.1319 23.7189 14.2782 24.0282 14.7172 24.4383C14.7767 24.4941 14.8524 24.5217 14.9274 24.5217C15.0111 24.5217 15.0942 24.4878 15.1552 24.421C15.1648 24.4103 15.1686 24.3972 15.1766 24.3856C15.1869 24.3771 15.1993 24.373 15.2086 24.3627L16.8562 22.5562C16.8609 22.5503 16.8624 22.543 16.8671 22.5371ZM9.41063 15.6452C9.53959 15.9181 9.68591 16.2274 10.1246 16.6372C10.5635 17.0472 10.8797 17.1699 11.159 17.2784C11.4191 17.3794 11.6436 17.467 11.9951 17.7948C12.3463 18.1233 12.4502 18.3426 12.5701 18.597C12.6994 18.8699 12.8454 19.1793 13.2841 19.589C13.723 19.9994 14.0395 20.122 14.3185 20.2306C14.5786 20.3319 14.8034 20.4194 15.1549 20.7473C15.5065 21.0758 15.6103 21.2954 15.7306 21.5501C15.8351 21.771 15.9538 22.0169 16.2269 22.3194L15.7836 22.8053C15.5979 22.591 15.5161 22.4188 15.4252 22.2265C15.296 21.9536 15.1497 21.6442 14.7107 21.2342C14.2717 20.8238 13.9552 20.7012 13.6762 20.5926C13.4161 20.4916 13.1914 20.4037 12.8398 20.0759C12.4886 19.7478 12.3848 19.5281 12.2645 19.2737C12.1355 19.0008 11.9892 18.6917 11.5506 18.282C11.1116 17.8717 10.7951 17.749 10.5161 17.6405C10.256 17.5394 10.0316 17.4519 9.68002 17.1241C9.32879 16.7959 9.22525 16.5763 9.10497 16.3222C9.0005 16.1013 8.88208 15.8557 8.60928 15.5532L9.05258 15.0673C9.23827 15.2812 9.3198 15.4535 9.41063 15.6452ZM14.5613 23.1746C14.432 22.9016 14.2857 22.5923 13.8467 22.1823C13.4078 21.7719 13.0913 21.6492 12.8123 21.5407C12.5522 21.4397 12.3274 21.3518 11.9759 21.024C11.6246 20.6955 11.5208 20.4762 11.4008 20.2218C11.2716 19.9488 11.1252 19.6395 10.6866 19.2298C10.2479 18.8197 9.93143 18.6971 9.65243 18.5882C9.39234 18.4875 9.16759 18.4 8.81636 18.0718C8.46513 17.7434 8.36128 17.5241 8.24131 17.2696C8.13684 17.0488 8.01842 16.8031 7.74562 16.5007L8.18892 16.0147C8.3743 16.2287 8.45583 16.4009 8.54666 16.5926C8.67562 16.8656 8.82194 17.1746 9.26059 17.5843C9.69924 17.9943 10.0157 18.117 10.2947 18.2256C10.5548 18.3266 10.7796 18.4141 11.1311 18.7423C11.4824 19.0704 11.5859 19.29 11.7062 19.5441C11.8351 19.8171 11.9815 20.1264 12.4201 20.5361C12.8591 20.9465 13.1756 21.0692 13.4546 21.1777C13.7147 21.279 13.9394 21.3666 14.291 21.6944C14.6425 22.0229 14.7463 22.2425 14.8666 22.4972C14.9711 22.7181 15.0898 22.9641 15.3629 23.2665L14.9196 23.7525C14.7339 23.5391 14.6521 23.3669 14.5613 23.1746Z" fill="#B2C793"/>
<path d="M22.5023 11.7729C22.2376 11.893 22.0073 12.096 21.8386 12.3552C21.2595 12.2068 20.5949 12.55 20.2737 13.2C20.2257 13.2979 20.1869 13.3983 20.1578 13.5012C19.7322 13.5912 19.3419 13.9056 19.1202 14.3542C19.0303 14.5359 18.9739 14.7275 18.9522 14.9214C18.5092 14.9942 18.0966 15.312 17.8629 15.7848C17.6921 16.1305 17.6412 16.5136 17.719 16.864C17.7559 17.0293 17.8192 17.179 17.9053 17.3079C17.6778 17.4432 17.4236 17.6571 17.2615 17.9887C17.0001 18.523 17.0522 19.1915 17.4168 19.9752C18.2001 21.6596 17.7051 22.9359 17.5736 23.2195L17.5572 23.2527C17.5476 23.2715 17.5417 23.2838 17.5395 23.2885C17.5395 23.2885 17.5389 23.2897 17.5386 23.2904L16.7856 24.8138C16.709 24.9688 16.771 25.1573 16.9242 25.2348C16.9688 25.2571 17.0159 25.2678 17.0624 25.2678C17.1762 25.2678 17.2856 25.2044 17.3402 25.0943L18.0935 23.5702C18.0978 23.5617 18.1044 23.5492 18.1124 23.5326C18.2253 23.3224 18.9593 22.0866 20.8209 21.6976C21.6591 21.5222 22.219 21.1639 22.4847 20.6315C22.6533 20.2937 22.6669 19.9514 22.6341 19.6835C22.7776 19.6725 22.9233 19.6345 23.0659 19.5699C23.3895 19.4228 23.662 19.1514 23.8328 18.8057C24.0619 18.3417 24.0694 17.8237 23.871 17.4231C24.0145 17.2875 24.1354 17.1241 24.2269 16.9384C24.4832 16.4198 24.4556 15.8237 24.1813 15.4127C24.2197 15.3541 24.2545 15.2932 24.2858 15.2304C24.4566 14.8847 24.5074 14.5017 24.4296 14.1512C24.371 13.8874 24.2452 13.664 24.0666 13.5003C24.1748 13.2041 24.1993 12.8901 24.1342 12.5986C24.0508 12.2253 23.8335 11.9326 23.5216 11.7748C23.2094 11.6166 22.848 11.616 22.5023 11.7729ZM23.5291 12.7366C23.5759 12.9462 23.5424 13.1809 23.4354 13.3973L23.4054 13.4523C23.3595 13.5341 23.3527 13.6326 23.3861 13.7202C23.4153 13.7961 23.4723 13.8573 23.5442 13.8912C23.6837 13.9639 23.7832 14.1051 23.8242 14.2893C23.871 14.4988 23.8375 14.7335 23.7306 14.95C23.6841 15.0444 23.6242 15.131 23.5526 15.2082C23.4946 15.2706 23.4643 15.3547 23.4689 15.44C23.4736 15.5257 23.5126 15.6057 23.5771 15.6615C23.8115 15.8642 23.8524 16.2927 23.6716 16.6579C23.5814 16.8402 23.4497 16.9876 23.29 17.0839C23.2094 17.1323 23.1552 17.2154 23.1419 17.3095C23.1288 17.4036 23.1583 17.4984 23.2225 17.5677C23.4249 17.7867 23.4478 18.1804 23.2773 18.5252C23.1704 18.7417 23.0048 18.9095 22.8111 18.9973C22.639 19.0755 22.4654 19.0792 22.3235 19.0068C22.17 18.9299 21.9846 18.992 21.9077 19.1461C21.8467 19.269 21.8727 19.4127 21.9623 19.5059C22.0107 19.6549 22.0962 20.016 21.9301 20.3489C21.754 20.7018 21.3383 20.9487 20.6947 21.0833C19.992 21.2301 19.4284 21.4836 18.9832 21.7679L19.8741 19.9652L21.2474 19.5024C21.4099 19.4475 21.4976 19.27 21.4437 19.1053C21.3897 18.9412 21.214 18.8533 21.0515 18.9067L20.2666 19.1712L20.7691 18.1544L22.1424 17.6913C22.3049 17.6364 22.3929 17.4588 22.3386 17.2941C22.2847 17.1301 22.1089 17.0419 21.9465 17.0955L21.1616 17.3603L21.7007 16.2695L23.074 15.8064C23.2364 15.7519 23.3241 15.5743 23.2699 15.4096C23.216 15.2455 23.0408 15.1558 22.8777 15.2113L22.0928 15.4761L22.6651 14.3178C22.7416 14.1628 22.6796 13.9743 22.5265 13.8968C22.4819 13.8745 22.4348 13.8639 22.3882 13.8639C22.2745 13.8639 22.165 13.9272 22.1105 14.0373L21.5463 15.1793L21.2927 14.4088C21.2388 14.2447 21.0627 14.1563 20.9006 14.2102C20.7381 14.2651 20.6501 14.4427 20.7043 14.6074L21.1541 15.9733L20.615 17.0642L20.3612 16.2937C20.3072 16.1296 20.1321 16.0402 19.969 16.0954C19.8066 16.15 19.7188 16.3275 19.7731 16.4923L20.2229 17.8579L19.7204 18.875L19.4668 18.1045C19.4129 17.9404 19.2371 17.8513 19.0747 17.9062C18.9122 17.9608 18.8242 18.1384 18.8784 18.3031L19.3282 19.6687L18.4512 21.4432C18.4078 20.928 18.2721 20.3413 17.9776 19.7083C17.6992 19.1093 17.644 18.6259 17.8148 18.272C18.0247 17.8363 18.5318 17.7152 18.5353 17.7142C18.6639 17.6863 18.7613 17.579 18.7777 17.4469C18.7941 17.3145 18.7265 17.1862 18.6087 17.1266C18.4664 17.0548 18.3651 16.9123 18.3238 16.726C18.2773 16.5164 18.3105 16.2817 18.4175 16.0656C18.5907 15.7155 18.9209 15.4987 19.2179 15.5376C19.313 15.5511 19.406 15.5184 19.4739 15.4519C19.5418 15.3854 19.5759 15.2907 19.5666 15.1956C19.548 15.0096 19.5858 14.816 19.6751 14.6353C19.8326 14.3159 20.1268 14.1029 20.4077 14.1029C20.4098 14.1029 20.412 14.1026 20.4151 14.1029C20.5707 14.1029 20.7028 13.9859 20.7226 13.829C20.7378 13.7098 20.7735 13.5928 20.8286 13.4814C21.0354 13.0635 21.4719 12.8433 21.781 12.9989L21.8163 13.0203C21.8935 13.0683 21.9893 13.0755 22.0751 13.0475C22.1613 13.0199 22.2332 12.9509 22.2689 12.8668C22.2757 12.8505 22.2825 12.8342 22.2906 12.8179C22.3975 12.6017 22.5631 12.4339 22.7568 12.3461C22.9289 12.2679 23.1022 12.2639 23.2448 12.3366C23.3861 12.4082 23.4875 12.5503 23.5291 12.7366Z" fill="#B2C793"/>
</svg>
