<svg width="80" height="86" viewBox="0 0 80 86" fill="none" xmlns="http://www.w3.org/2000/svg">
<g clip-path="url(#clip0_2_387)">
<path d="M73.75 64.5H68.9463C67.7203 64.1293 66.6042 63.4572 65.6975 62.5438C64.7908 61.6304 64.1217 60.5041 63.75 59.2654V49.2388C65.4941 49.0425 67.1683 48.4353 68.6384 47.4658C70.1085 46.4963 71.3335 45.1916 72.215 43.6564L72.2262 43.6425V43.6324V43.626C73.2255 41.9022 73.7516 39.9396 73.75 37.9412C73.75 37.6058 73.6183 37.2841 73.3839 37.0469C73.1495 36.8097 72.8315 36.6765 72.5 36.6765H52.5C52.1685 36.6765 51.8505 36.8097 51.6161 37.0469C51.3817 37.2841 51.25 37.6058 51.25 37.9412C51.2461 39.9374 51.7686 41.8985 52.7637 43.6222V43.6286V43.6387L52.775 43.6526C53.6571 45.1898 54.8834 46.496 56.3554 47.4663C57.8273 48.4365 59.5038 49.0436 61.25 49.2388V59.2654C60.8783 60.5041 60.2092 61.6304 59.3025 62.5438C58.3958 63.4572 57.2797 64.1293 56.0537 64.5H49.9363C49.626 59.2529 47.426 54.3027 43.7524 50.5859C40.0787 46.869 35.1861 44.6431 30 44.3292V43C30 42.6646 29.8683 42.3429 29.6339 42.1057C29.3995 41.8686 29.0815 41.7353 28.75 41.7353C28.4185 41.7353 28.1005 41.8686 27.8661 42.1057C27.6317 42.3429 27.5 42.6646 27.5 43V44.3292C22.3139 44.6431 17.4213 46.869 13.7476 50.5859C10.074 54.3027 7.87396 59.2529 7.56375 64.5H6.25C5.58696 64.5 4.95107 64.7665 4.48223 65.2409C4.01339 65.7152 3.75 66.3586 3.75 67.0294V74.6177C3.75 75.2885 4.01339 75.9319 4.48223 76.4062C4.95107 76.8806 5.58696 77.1471 6.25 77.1471H73.75C74.413 77.1471 75.0489 76.8806 75.5178 76.4062C75.9866 75.9319 76.25 75.2885 76.25 74.6177V67.0294C76.25 66.3586 75.9866 65.7152 75.5178 65.2409C75.0489 64.7665 74.413 64.5 73.75 64.5ZM71.1613 39.2059C71.0377 40.0835 70.7814 40.9366 70.4012 41.7353H54.5988C54.2186 40.9366 53.9623 40.0835 53.8387 39.2059H71.1613ZM68.625 44.2647C66.9915 45.886 64.7945 46.7943 62.5063 46.7943C60.218 46.7943 58.021 45.886 56.3875 44.2647H68.625ZM62.5 62.5068C62.9396 63.2311 63.4624 63.9001 64.0575 64.5H60.9425C61.5376 63.9001 62.0604 63.2311 62.5 62.5068ZM28.75 46.7941C33.5048 46.8 38.0802 48.6309 41.5527 51.9172C45.0251 55.2035 47.1359 59.7004 47.4587 64.5H10.0413C10.3641 59.7004 12.4749 55.2035 15.9473 51.9172C19.4197 48.6309 23.9952 46.8 28.75 46.7941ZM6.25 74.6177V72.0882H20C20.3315 72.0882 20.6495 71.955 20.8839 71.7178C21.1183 71.4806 21.25 71.159 21.25 70.8235C21.25 70.4881 21.1183 70.1664 20.8839 69.9293C20.6495 69.6921 20.3315 69.5588 20 69.5588H6.25V67.0294H73.75V69.5588H46.25C45.9185 69.5588 45.6005 69.6921 45.3661 69.9293C45.1317 70.1664 45 70.4881 45 70.8235C45 71.159 45.1317 71.4806 45.3661 71.7178C45.6005 71.955 45.9185 72.0882 46.25 72.0882H73.75V74.6177H6.25Z" fill="#4C7C04"/>
<path d="M23.3326 50.2632C21.0541 51.092 18.9847 52.42 17.2726 54.1522C15.5605 55.8845 14.2479 57.9781 13.4288 60.2835C13.3718 60.4405 13.3461 60.6075 13.3532 60.7746C13.3604 60.9418 13.4003 61.1059 13.4706 61.2574C13.5408 61.4088 13.6401 61.5447 13.7627 61.657C13.8853 61.7694 14.0286 61.856 14.1845 61.9119C14.3404 61.9678 14.5057 61.9919 14.6708 61.9827C14.836 61.9734 14.9977 61.9312 15.1465 61.8583C15.2954 61.7854 15.4285 61.6833 15.5381 61.558C15.6477 61.4327 15.7317 61.2867 15.7851 61.1283C16.4787 59.1772 17.5898 57.4053 19.0388 55.9392C20.4879 54.4731 22.2392 53.3489 24.1676 52.6472C24.4763 52.5323 24.7279 52.2989 24.8677 51.9976C25.0076 51.6963 25.0243 51.3514 24.9145 51.0377C24.8046 50.724 24.5769 50.4667 24.2807 50.3217C23.9846 50.1767 23.6439 50.1557 23.3326 50.2632Z" fill="#4C7C04"/>
<path d="M62.5 25.2941C63.8261 25.2941 65.0979 25.8271 66.0355 26.7758C66.9732 27.7245 67.5 29.0113 67.5 30.353C67.5 30.6884 67.6317 31.0101 67.8661 31.2472C68.1005 31.4844 68.4185 31.6177 68.75 31.6177C69.0815 31.6177 69.3995 31.4844 69.6339 31.2472C69.8683 31.0101 70 30.6884 70 30.353C70 29.0113 70.5268 27.7245 71.4645 26.7758C72.4021 25.8271 73.6739 25.2941 75 25.2941C75.3315 25.2941 75.6495 25.1609 75.8839 24.9237C76.1183 24.6865 76.25 24.3648 76.25 24.0294C76.25 23.694 76.1183 23.3723 75.8839 23.1351C75.6495 22.898 75.3315 22.7647 75 22.7647C73.6739 22.7647 72.4021 22.2317 71.4645 21.283C70.5268 20.3343 70 19.0476 70 17.7059C70 17.3705 69.8683 17.0488 69.6339 16.8116C69.3995 16.5744 69.0815 16.4412 68.75 16.4412C68.4185 16.4412 68.1005 16.5744 67.8661 16.8116C67.6317 17.0488 67.5 17.3705 67.5 17.7059C67.5 19.0476 66.9732 20.3343 66.0355 21.283C65.0979 22.2317 63.8261 22.7647 62.5 22.7647C62.1685 22.7647 61.8505 22.898 61.6161 23.1351C61.3817 23.3723 61.25 23.694 61.25 24.0294C61.25 24.3648 61.3817 24.6865 61.6161 24.9237C61.8505 25.1609 62.1685 25.2941 62.5 25.2941ZM68.75 21.8959C69.306 22.7416 70.0228 23.4669 70.8588 24.0294C70.0228 24.5919 69.306 25.3172 68.75 26.163C68.194 25.3172 67.4772 24.5919 66.6412 24.0294C67.4772 23.4669 68.194 22.7416 68.75 21.8959Z" fill="#4C7C04"/>
<path d="M5 12.6471C6.32608 12.6471 7.59785 13.1801 8.53553 14.1288C9.47322 15.0775 10 16.3642 10 17.7059C10 18.0413 10.1317 18.363 10.3661 18.6002C10.6005 18.8374 10.9185 18.9706 11.25 18.9706C11.5815 18.9706 11.8995 18.8374 12.1339 18.6002C12.3683 18.363 12.5 18.0413 12.5 17.7059C12.5 16.3642 13.0268 15.0775 13.9645 14.1288C14.9021 13.1801 16.1739 12.6471 17.5 12.6471C17.8315 12.6471 18.1495 12.5138 18.3839 12.2766C18.6183 12.0395 18.75 11.7178 18.75 11.3824C18.75 11.0469 18.6183 10.7253 18.3839 10.4881C18.1495 10.2509 17.8315 10.1177 17.5 10.1177C16.1739 10.1177 14.9021 9.58468 13.9645 8.63596C13.0268 7.68725 12.5 6.40052 12.5 5.05883C12.5 4.72341 12.3683 4.40173 12.1339 4.16455C11.8995 3.92737 11.5815 3.79413 11.25 3.79413C10.9185 3.79413 10.6005 3.92737 10.3661 4.16455C10.1317 4.40173 10 4.72341 10 5.05883C10 6.40052 9.47322 7.68725 8.53553 8.63596C7.59785 9.58468 6.32608 10.1177 5 10.1177C4.66848 10.1177 4.35054 10.2509 4.11612 10.4881C3.8817 10.7253 3.75 11.0469 3.75 11.3824C3.75 11.7178 3.8817 12.0395 4.11612 12.2766C4.35054 12.5138 4.66848 12.6471 5 12.6471ZM11.25 9.24881C11.806 10.0946 12.5228 10.8199 13.3588 11.3824C12.5228 11.9449 11.806 12.6701 11.25 13.5159C10.694 12.6701 9.97719 11.9449 9.14125 11.3824C9.97719 10.8199 10.694 10.0946 11.25 9.24881Z" fill="#4C7C04"/>
</g>
<defs>
<clipPath id="clip0_2_387">
<rect width="80" height="86" fill="white"/>
</clipPath>
</defs>
</svg>
