<svg width="41" height="42" viewBox="0 0 41 42" fill="none" xmlns="http://www.w3.org/2000/svg">
<g clip-path="url(#clip0_2_128)">
<path d="M24.4649 38.9117H13.2596C12.0009 38.9117 10.9226 37.9976 10.6807 36.7829L11.8533 36.3094C12.5872 36.0129 13.1489 35.4076 13.358 34.6912C13.5384 34.0653 13.4318 33.4064 13.0628 32.8917C12.3535 31.8953 11.6401 30.8988 10.9308 29.8982C12.9808 28.6259 13.8828 27.2382 13.4113 26.0564C12.8701 24.71 11.8902 23.5982 10.6315 22.9023V4.82997V4.82586C10.6315 3.89939 10.2707 3.03468 9.61884 2.37997C9.55324 2.31409 9.48354 2.25233 9.41384 2.19056H13.2596H34.0548C35.5062 2.19056 36.6829 3.37644 36.6829 4.82997V15.437V24.4382C36.6829 24.6647 36.8674 24.85 37.0929 24.85C37.3184 24.85 37.5029 24.6647 37.5029 24.4382V15.437V4.82997C37.5029 2.91939 35.9531 1.36292 34.0507 1.36292H13.2596H7.17934C5.27694 1.36292 3.72714 2.91939 3.72714 4.82997V15.437C3.72714 17.3476 5.27694 18.9041 7.17934 18.9041H9.80744V22.5153C8.34784 21.9676 6.72834 21.98 5.26874 22.5688C3.71894 23.1947 2.50534 24.3929 1.84934 25.9329C1.19334 27.477 1.17694 29.1859 1.80014 30.7423C2.13634 31.5782 3.03834 32.0106 4.37494 32.0106C4.92434 32.0106 5.55164 31.9364 6.24044 31.7882L6.76524 35.4323C6.85544 36.0623 7.23264 36.61 7.79434 36.9353C8.15514 37.1453 8.57334 37.2523 8.99974 37.2523C9.30314 37.2523 9.61064 37.1988 9.90584 37.0917C10.2789 38.6112 11.6565 39.7353 13.2596 39.7353H24.4649C24.6904 39.7353 24.8749 39.55 24.8749 39.3235C24.8749 39.097 24.6904 38.9117 24.4649 38.9117ZM7.17934 18.0806C5.72794 18.0806 4.55124 16.8947 4.55124 15.4411V4.82997C4.55124 3.37233 5.73204 2.19056 7.17934 2.19056C7.88044 2.19056 8.54054 2.46644 9.03664 2.96468C9.53274 3.46291 9.80744 4.12586 9.80744 4.82997V15.437V15.4411V18.0764H7.17934V18.0806ZM2.56684 30.4417C2.02564 29.0912 2.03794 27.6047 2.60784 26.2664C3.17774 24.9241 4.23144 23.8864 5.57624 23.3429C7.01944 22.7582 8.64304 22.8241 10.037 23.5241C11.226 24.1212 12.1526 25.13 12.6487 26.3694C12.9521 27.127 12.1157 28.21 10.4511 29.2312L10.2748 28.9841C10.3527 28.9182 10.4306 28.8564 10.5003 28.7906C11.3449 28.0082 11.3285 27.3659 11.1686 26.9664C11.0128 26.5794 10.7996 26.2211 10.5331 25.9123C9.45894 24.6441 7.70824 24.2117 6.17074 24.8294C5.36714 25.1547 4.71524 25.7229 4.28064 26.4764C4.16584 26.6741 4.23554 26.9253 4.43234 27.0406C4.62914 27.1559 4.87924 27.0859 4.99404 26.8882C5.33434 26.2953 5.84684 25.8506 6.47824 25.5953C7.68364 25.1053 9.06124 25.447 9.90584 26.4476C10.1149 26.6947 10.283 26.9706 10.4019 27.2753C10.5249 27.5759 10.1641 27.9712 9.93864 28.1812C9.89354 28.2223 9.84434 28.2635 9.79514 28.3088L9.40564 27.7612C8.93004 27.0529 7.96244 26.7894 7.09734 27.1394C6.23634 27.4894 5.71564 28.35 5.86324 29.1941L5.95754 29.8612C5.33434 29.9064 4.90794 29.7912 4.80544 29.54C4.69064 29.2559 4.62094 28.9553 4.59634 28.6506C4.57994 28.4241 4.37904 28.2553 4.15354 28.2717C3.92804 28.2882 3.75994 28.49 3.77634 28.7164C3.80914 29.1035 3.89524 29.4823 4.04284 29.8488C4.17814 30.1906 4.57584 30.697 5.70744 30.697C5.82224 30.697 5.94524 30.6929 6.07644 30.6806C6.09284 30.7794 6.10514 30.8823 6.12154 30.9812C4.21914 31.397 2.87024 31.1994 2.56684 30.4417ZM8.20434 36.2229C7.85584 36.0212 7.63444 35.7 7.57704 35.317L6.99074 31.2323C6.99074 31.2241 6.98664 31.2159 6.98664 31.2035L6.97844 31.1376C6.93334 30.8123 6.88414 30.4829 6.83904 30.1535V30.1494V30.1453C6.83904 30.1453 6.83904 30.1453 6.83904 30.1411L6.68324 29.0582C6.68324 29.0541 6.68324 29.05 6.67914 29.0459C6.59714 28.5929 6.91284 28.0988 7.40894 27.897C7.90504 27.6953 8.47494 27.8353 8.72504 28.2182C8.72914 28.2223 8.72914 28.2264 8.73324 28.2306L10.0042 30.0094C10.8037 31.1294 11.5991 32.2453 12.3986 33.3653C12.6241 33.6782 12.6856 34.0653 12.5708 34.4523C12.4314 34.9259 12.0501 35.3335 11.5499 35.5353L9.68854 36.2847C9.18834 36.4988 8.63484 36.47 8.20434 36.2229ZM19.1718 14.9923V16.7835C19.1718 17.29 19.6351 17.6853 20.2214 17.6853H27.0971C27.6875 17.6853 28.1467 17.29 28.1467 16.7835V16.6353V16.6311V13.5676C29.471 13.3659 30.4919 12.217 30.4919 10.8335C30.4919 9.30997 29.2578 8.06644 27.7367 8.06644C27.6998 8.06644 27.6629 8.06644 27.626 8.07056C27.0479 6.38233 25.4653 5.2335 23.6613 5.2335C21.8532 5.2335 20.2706 6.38233 19.6925 8.07056C19.6556 8.07056 19.6187 8.06644 19.5818 8.06644C18.0607 8.06644 16.8266 9.30586 16.8266 10.8335C16.8266 12.217 17.8475 13.37 19.1718 13.5676V14.9923ZM17.6507 10.8335C17.6507 9.76292 18.5158 8.89409 19.5818 8.89409C19.6966 8.89409 19.8073 8.90233 19.918 8.92292C19.9262 8.92292 19.9344 8.92292 19.9426 8.92292C19.959 8.92292 19.9713 8.92703 19.9836 8.92703C19.9959 8.92703 20.0082 8.92703 20.0246 8.92292C20.0369 8.92292 20.0533 8.9188 20.0656 8.9188C20.0779 8.91468 20.0902 8.91468 20.1025 8.91056C20.1148 8.90644 20.1271 8.90233 20.1394 8.89821C20.1517 8.89409 20.164 8.88586 20.1763 8.88174C20.1886 8.87762 20.2009 8.86939 20.2091 8.86115C20.2214 8.85292 20.2296 8.84468 20.2419 8.83644C20.2542 8.82821 20.2624 8.81997 20.2706 8.81174C20.2788 8.8035 20.287 8.79115 20.2952 8.78292C20.3034 8.77468 20.3116 8.76233 20.3198 8.74997C20.328 8.73762 20.3321 8.72527 20.3403 8.71703C20.3485 8.70468 20.3526 8.69233 20.3608 8.67997C20.3649 8.66762 20.369 8.65527 20.3731 8.6388C20.3772 8.63056 20.3813 8.62233 20.3813 8.61409C20.7585 7.10703 22.1033 6.05703 23.6531 6.05703C25.2029 6.05703 26.5477 7.11115 26.9249 8.61821C26.9905 8.88586 27.0274 9.16586 27.0274 9.44586C27.0274 9.94821 26.9208 10.4341 26.7076 10.8829C26.6092 11.0888 26.6994 11.3359 26.9044 11.4347C26.9618 11.4635 27.0192 11.4759 27.0807 11.4759C27.2365 11.4759 27.3841 11.3894 27.4538 11.237C27.7162 10.6729 27.8515 10.0717 27.8515 9.44586C27.8515 9.26056 27.8392 9.07939 27.8146 8.89821C28.8396 8.9435 29.6637 9.79174 29.6637 10.8335C29.6637 11.9041 28.7986 12.7729 27.7326 12.7729C26.9659 12.7729 26.273 12.32 25.9655 11.6159C25.8753 11.4059 25.6293 11.3112 25.4243 11.4059C25.2152 11.4964 25.1209 11.7435 25.2152 11.9494C25.6006 12.8264 26.4042 13.4317 27.3267 13.5717V14.5847H25.8835C25.658 14.5847 25.4735 14.77 25.4735 14.9964C25.4735 15.2229 25.658 15.4082 25.8835 15.4082H27.3267V16.6353C27.3267 16.7588 27.2242 16.8617 27.1012 16.8617H20.2214C20.0943 16.8617 19.9959 16.7588 19.9959 16.6353V15.4123H23.4891C23.7146 15.4123 23.8991 15.227 23.8991 15.0006C23.8991 14.7741 23.7146 14.5888 23.4891 14.5888H19.9959V13.5759C20.3198 13.5264 20.6355 13.4194 20.9184 13.2629C21.1152 13.1517 21.189 12.9006 21.0783 12.7029C20.9676 12.5053 20.7175 12.4312 20.5207 12.5423C20.2378 12.7029 19.9139 12.7853 19.5859 12.7853C18.5199 12.7729 17.6507 11.9 17.6507 10.8335ZM15.3342 21.6835C15.3342 21.91 15.1497 22.0953 14.9242 22.0953C14.6987 22.0953 14.5142 21.91 14.5142 21.6835C14.5142 21.457 14.6987 21.2717 14.9242 21.2717C15.1497 21.2717 15.3342 21.457 15.3342 21.6835ZM32.8125 21.6835C32.8125 21.91 32.628 22.0953 32.4025 22.0953H17.4908C17.2653 22.0953 17.0808 21.91 17.0808 21.6835C17.0808 21.457 17.2653 21.2717 17.4908 21.2717H32.4025C32.628 21.2717 32.8125 21.457 32.8125 21.6835ZM15.3342 27.1929C15.3342 27.4194 15.1497 27.6047 14.9242 27.6047C14.6987 27.6047 14.5142 27.4194 14.5142 27.1929C14.5142 26.9664 14.6987 26.7812 14.9242 26.7812C15.1497 26.7812 15.3342 26.9664 15.3342 27.1929ZM32.3984 27.6088H17.4908C17.2653 27.6088 17.0808 27.4235 17.0808 27.197C17.0808 26.9706 17.2653 26.7853 17.4908 26.7853H32.4025C32.628 26.7853 32.8125 26.9706 32.8125 27.197C32.8125 27.4235 32.628 27.6088 32.3984 27.6088ZM28.2164 29.5359C28.4419 29.5359 28.6264 29.7212 28.6264 29.9476C28.6264 30.1741 28.4419 30.3594 28.2164 30.3594H17.4908C17.2653 30.3594 17.0808 30.1741 17.0808 29.9476C17.0808 29.7212 17.2653 29.5359 17.4908 29.5359H28.2164ZM17.0808 24.4382C17.0808 24.2117 17.2653 24.0264 17.4908 24.0264H25.0676C25.2931 24.0264 25.4776 24.2117 25.4776 24.4382C25.4776 24.6647 25.2931 24.85 25.0676 24.85H17.4908C17.2612 24.8541 17.0808 24.6688 17.0808 24.4382ZM32.915 34.267C32.915 34.0406 33.0995 33.8553 33.325 33.8553C33.5505 33.8553 33.735 34.0406 33.735 34.267C33.735 34.4935 33.5505 34.6788 33.325 34.6788C33.0995 34.6788 32.915 34.4935 32.915 34.267ZM29.9835 34.5264C29.9835 34.3 30.168 34.1147 30.3935 34.1147C30.619 34.1147 30.8035 34.3 30.8035 34.5264C30.8035 34.7529 30.619 34.9382 30.3935 34.9382C30.168 34.9382 29.9835 34.7529 29.9835 34.5264ZM34.2065 31.607C34.2065 31.3806 34.391 31.1953 34.6165 31.1953C34.842 31.1953 35.0265 31.3806 35.0265 31.607C35.0265 31.8335 34.842 32.0188 34.6165 32.0188C34.391 32.0229 34.2065 31.8376 34.2065 31.607ZM38.2286 27.0653C38.1671 26.9747 38.0154 26.8264 37.7202 26.847C37.343 26.8759 36.5312 27.2794 35.5923 27.8229C35.5882 27.8229 35.5841 27.827 35.58 27.8312C33.8006 28.8606 31.5743 30.3882 30.9634 30.8082C30.3566 31.2282 28.1754 32.7476 26.5846 34.0406H26.5805C26.5723 34.0447 26.5682 34.0488 26.5641 34.057C25.7113 34.7529 25.0307 35.3788 24.8667 35.7247C24.7396 35.9964 24.8216 36.19 24.8872 36.2806C26.1131 38.0717 27.9581 39.2741 30.086 39.6694C30.5821 39.76 31.0823 39.8094 31.5784 39.8094C33.202 39.8094 34.7846 39.3194 36.1499 38.3764C37.9334 37.1453 39.1306 35.2923 39.5242 33.1553C39.9096 31.0182 39.4504 28.8564 38.2286 27.0653ZM31.4267 31.4917C33.0995 30.3347 34.5509 29.4041 35.6538 28.7494C36.3795 29.8447 36.646 31.1582 36.4041 32.4594C36.1581 33.7894 35.416 34.9382 34.309 35.7041C33.202 36.4659 31.8654 36.7541 30.5411 36.507C29.2455 36.2682 28.1221 35.5435 27.3636 34.4729C28.364 33.6741 29.7539 32.6488 31.4267 31.4917ZM35.6743 37.697C34.0712 38.8047 32.136 39.2164 30.2254 38.8623C28.3804 38.5206 26.7691 37.4994 25.6703 35.98C25.822 35.7864 26.1828 35.4447 26.724 34.9959C27.6096 36.2188 28.9052 37.0423 30.3935 37.3223C30.7543 37.3882 31.1151 37.4212 31.4759 37.4212C32.6485 37.4212 33.7924 37.067 34.7764 36.3876C36.0638 35.4982 36.9289 34.16 37.2118 32.6117C37.4865 31.117 37.1872 29.6059 36.3631 28.3376C36.9781 27.9917 37.4209 27.7776 37.6546 27.7035C39.7948 31.0059 38.9256 35.4529 35.6743 37.697Z" fill="#4C7C04"/>
</g>
<defs>
<clipPath id="clip0_2_128">
<rect width="41" height="42" fill="white"/>
</clipPath>
</defs>
</svg>
