<svg width="22" height="22" viewBox="0 0 22 22" fill="none" xmlns="http://www.w3.org/2000/svg">
<path d="M18.9581 13.2089C18.0103 13.0944 17.0545 13.091 16.118 13.2032C14.9695 13.3403 14.0102 14.0382 13.5107 15.0183L8.78629 12.6344C8.8034 12.5472 8.82963 12.4633 8.83989 12.3738C8.94939 11.4413 8.94939 10.4941 8.83875 9.56047C8.82849 9.47549 8.80453 9.39618 8.78743 9.31347L13.5004 6.96467C13.9988 7.9504 14.9672 8.65402 16.1283 8.79113C16.6131 8.84778 17.0978 8.87724 17.5814 8.87724C18.0388 8.87724 18.495 8.85118 18.9456 8.8002C20.5116 8.62231 21.7343 7.40882 21.918 5.84973C22.0275 4.91497 22.0275 3.96775 21.9169 3.03641C21.7332 1.48982 20.5174 0.277466 18.957 0.0882613C18.008 -0.0273092 17.0534 -0.0295743 16.1181 0.0825964C14.5623 0.267282 13.3476 1.47963 13.1628 3.02958C13.0522 3.96206 13.0511 4.90817 13.1606 5.84178C13.1708 5.92902 13.1959 6.00947 13.2119 6.09444L8.4989 8.44324C8.00161 7.45864 7.03554 6.75276 5.87897 6.61225C4.93001 6.49668 3.97535 6.49442 3.03891 6.60659C1.48317 6.79127 0.268437 8.00362 0.0836952 9.55357C-0.0269423 10.4861 -0.0280809 11.4322 0.0814143 12.3658C0.262766 13.918 1.48319 15.1304 3.04919 15.3151C3.53395 15.3717 4.01982 15.4012 4.50344 15.4012C4.96195 15.4012 5.41704 15.3751 5.86644 15.3241C7.02529 15.1927 7.99364 14.4914 8.49434 13.5056L13.2164 15.8884C13.1993 15.9768 13.173 16.0617 13.1616 16.1524C13.051 17.0849 13.0499 18.031 13.1594 18.9646C13.3407 20.5169 14.5611 21.7292 16.1271 21.9139C16.6119 21.9705 17.0978 22 17.5814 22C18.0388 22 18.4938 21.9751 18.9444 21.923C20.5104 21.7451 21.7331 20.5316 21.9168 18.9725C22.0263 18.0377 22.0263 17.0905 21.9157 16.1592C21.7332 14.6103 20.5173 13.3981 18.9581 13.2089ZM14.0696 3.13516C14.2042 2.00214 15.0916 1.1161 16.2265 0.981253C16.6496 0.931398 17.0773 0.90534 17.5073 0.90534C17.9533 0.90534 18.4004 0.932532 18.8452 0.986918C19.9858 1.12515 20.8754 2.01117 21.0089 3.14083C21.1104 4.00308 21.1116 4.87891 21.0101 5.74343C20.8755 6.88214 19.9835 7.76817 18.8407 7.89847C17.9829 7.99591 17.107 7.99251 16.2344 7.89054C15.0893 7.75571 14.1973 6.86968 14.065 5.73663C13.9658 4.87324 13.967 3.99742 14.0696 3.13516ZM5.76283 14.4213C4.90739 14.5187 4.03029 14.5165 3.15774 14.4134C2.01258 14.2785 1.12065 13.3925 0.988346 12.2595C0.886833 11.3972 0.887975 10.5214 0.990627 9.65799C1.12522 8.52497 2.01259 7.64006 3.14746 7.50408C4.01087 7.40211 4.89256 7.40438 5.76739 7.50975C6.90796 7.64798 7.79762 8.534 7.93109 9.66366C8.03374 10.5282 8.03374 11.404 7.93223 12.2663C7.79878 13.4061 6.90684 14.2921 5.76283 14.4213ZM21.0114 18.865C20.8768 20.0037 19.9848 20.8897 18.842 21.02C17.9854 21.1175 17.1094 21.1141 16.2357 21.011C15.0906 20.8761 14.1987 19.9901 14.0664 18.857C13.9648 17.9937 13.966 17.119 14.0686 16.2556C14.2032 15.1226 15.0906 14.2365 16.2255 14.1017C17.0889 13.9997 17.9706 14.002 18.8454 14.1073C19.986 14.2456 20.8756 15.1316 21.0091 16.2612C21.1129 17.1246 21.1129 18.0005 21.0114 18.865Z" fill="#4C7C04"/>
</svg>
